<svg xmlns="http://www.w3.org/2000/svg" width="32.715" height="45.89" viewBox="0 0 32.715 45.89">
  <g id="baby" transform="translate(-73.5)">
    <g id="Grupo_50" data-name="Grupo 50" transform="translate(83.588 16.009)">
      <g id="Grupo_47" data-name="Grupo 47" transform="translate(0)">
        <path id="Trazado_26" data-name="Trazado 26" d="M186.723,181.03a.672.672,0,0,1-.672-.672v-1.076a.672.672,0,1,1,1.344,0v1.076A.672.672,0,0,1,186.723,181.03Z" transform="translate(-186.051 -178.61)" fill="#ff6630"/>
      </g>
      <g id="Grupo_48" data-name="Grupo 48" transform="translate(11.194)">
        <path id="Trazado_27" data-name="Trazado 27" d="M311.62,181.03a.672.672,0,0,1-.672-.672v-1.076a.672.672,0,1,1,1.344,0v1.076A.672.672,0,0,1,311.62,181.03Z" transform="translate(-310.948 -178.61)" fill="#ff6630"/>
      </g>
      <g id="Grupo_49" data-name="Grupo 49" transform="translate(4.122 1.044)">
        <path id="Trazado_28" data-name="Trazado 28" d="M234.183,192.27a2.63,2.63,0,0,1-1.983-.9.672.672,0,1,1,1.014-.883,1.284,1.284,0,0,0,1.938,0,.672.672,0,1,1,1.014.883A2.629,2.629,0,0,1,234.183,192.27Z" transform="translate(-232.035 -190.253)" fill="#ff6630"/>
      </g>
    </g>
    <g id="Grupo_51" data-name="Grupo 51" transform="translate(73.5)">
      <path id="Trazado_29" data-name="Trazado 29" d="M89.857,0A16.376,16.376,0,0,0,73.5,16.357V29.533a16.348,16.348,0,0,0,27.117,12.31.68.68,0,0,0,.093-.082,16.321,16.321,0,0,0,5.5-12.227V16.357A16.376,16.376,0,0,0,89.857,0ZM104.87,29.533A14.972,14.972,0,0,1,100.2,40.4L95.98,36.81a.672.672,0,0,0-.871,1.024l4.069,3.459a15,15,0,0,1-24.334-11.76V16.357a15.013,15.013,0,0,1,30.026,0Z" transform="translate(-73.5)" fill="#ff6630"/>
      <path id="Trazado_30" data-name="Trazado 30" d="M124.677,37.436a13.02,13.02,0,0,0-12.925,11.585.672.672,0,1,0,1.337.146,11.659,11.659,0,0,1,15.525-9.7,4.644,4.644,0,0,1,.775,4.8,3.6,3.6,0,0,1-4.693,1.97,2.748,2.748,0,0,1-1.5-3.579,2.061,2.061,0,0,1,2.688-1.128,1.515,1.515,0,0,1,.829,1.975,1.07,1.07,0,0,1-.58.586.672.672,0,0,0,.52,1.24,2.406,2.406,0,0,0,1.3-1.317,2.859,2.859,0,0,0-1.565-3.728,3.406,3.406,0,0,0-4.441,1.864,4.094,4.094,0,0,0,2.239,5.332,4.943,4.943,0,0,0,6.446-2.706,5.983,5.983,0,0,0,.1-4.293,11.658,11.658,0,1,1-12.806,19.468l-1.534-1.3-.011-.009a11.609,11.609,0,0,1-3.288-6.874.672.672,0,0,0-1.336.152,12.971,12.971,0,0,0,3.664,7.648.675.675,0,0,0,.1.107l.037.032q.21.207.431.406a13.065,13.065,0,0,0,1.017.825l10.865,9.237a.672.672,0,0,0,.871-1.024L121.6,63.07a13,13,0,1,0,3.077-25.634Z" transform="translate(-108.319 -34.081)" fill="#ff6630"/>
    </g>
  </g>
</svg>
