<svg xmlns="http://www.w3.org/2000/svg" width="40.138" height="40.789" viewBox="0 0 40.138 40.789">
  <g id="birthday-cake" transform="translate(-0.392 0)">
    <path id="Trazado_19" data-name="Trazado 19" d="M40.53,145.851V139.83a3.348,3.348,0,0,0-3.345-3.345H34.51V129.8a.669.669,0,0,0-.669-.669H29.827a.669.669,0,0,0-.669.669v6.69H23.137v-8.028a.669.669,0,0,0-.669-.669H18.455a.669.669,0,0,0-.669.669v8.028H11.765V129.8a.669.669,0,0,0-.669-.669H7.082a.669.669,0,0,0-.669.669v6.69H3.737A3.349,3.349,0,0,0,.393,139.83v6.021a3.88,3.88,0,0,0,2.007,3.46v7.244H1.062a.669.669,0,1,0,0,1.338h38.8a.669.669,0,1,0,0-1.338H38.523v-7.233A4.026,4.026,0,0,0,40.53,145.851ZM30.5,130.465h2.676v6.021H30.5Zm-11.372-1.338H21.8v7.359H19.124ZM7.751,130.465h2.676v6.021H7.751ZM1.731,139.83a2.007,2.007,0,0,1,2.007-2.007H37.186a2.007,2.007,0,0,1,2.007,2.007v6.021a2.692,2.692,0,0,1-1.6,2.455,2.736,2.736,0,0,1-2.967-.557,2.687,2.687,0,0,1-.784-1.9v-2.676a2.669,2.669,0,0,0-1.481-2.382l-.041-.022a2.555,2.555,0,0,0-.331-.129c-.067-.022-.128-.044-.194-.06a2.584,2.584,0,0,0-.259-.046c-.059-.008-.115-.026-.175-.031-.032,0-.063,0-.094,0s-.066-.01-.1-.01c-.074,0-.146.015-.219.021s-.152.009-.227.022a2.675,2.675,0,0,0-.342.088c-.06.019-.122.032-.181.055a2.565,2.565,0,0,0-.361.181c-.042.024-.087.041-.128.067a2.689,2.689,0,0,0-.433.35,2.658,2.658,0,0,0-.785,1.893v1.338a2.676,2.676,0,1,1-5.352,0v-1.338a2.669,2.669,0,0,0-1.481-2.382l-.041-.022a2.557,2.557,0,0,0-.331-.129c-.067-.022-.128-.044-.194-.06a2.584,2.584,0,0,0-.259-.046c-.059-.008-.115-.026-.175-.031-.032,0-.063,0-.094,0s-.066-.01-.1-.01c-.074,0-.146.015-.219.021s-.152.009-.227.022a2.679,2.679,0,0,0-.341.088c-.061.019-.122.032-.181.055a2.6,2.6,0,0,0-.359.18c-.043.024-.088.042-.13.067a2.663,2.663,0,0,0-1.218,2.243v4.014a2.676,2.676,0,0,1-5.352,0v-4.014a2.669,2.669,0,0,0-1.481-2.382l-.041-.022a2.554,2.554,0,0,0-.331-.129c-.067-.022-.128-.044-.194-.06a2.584,2.584,0,0,0-.259-.046c-.059-.008-.115-.026-.175-.031s-.128-.007-.2-.007a2.676,2.676,0,0,0-2.676,2.676v2.676a2.68,2.68,0,0,1-.778,1.892,2.761,2.761,0,0,1-2.5.709,2.669,2.669,0,0,1-.468-.145,2.753,2.753,0,0,1-.822-.559,2.687,2.687,0,0,1-.784-1.9Zm2.007,16.724v-6.745c.067.011.134.014.2.022l.051.006a4.028,4.028,0,0,0,1.733-.2,4.078,4.078,0,0,0,.5-.213c.034-.017.067-.035.1-.054a4.1,4.1,0,0,0,.377-.232c.039-.026.078-.051.116-.079a3.9,3.9,0,0,0,1.605-3.207v-2.676a1.328,1.328,0,0,1,.393-.945,1.359,1.359,0,0,1,.22-.177c.014-.008.029-.015.043-.023a1.324,1.324,0,0,1,.205-.1c.021-.008.042-.013.063-.019a1.277,1.277,0,0,1,.2-.05c.032-.005.067-.007.1-.01a1.463,1.463,0,0,1,.169-.006,1.725,1.725,0,0,1,.275.04c.017,0,.032.01.048.015a1.461,1.461,0,0,1,.961,1.391v3.9a4.014,4.014,0,0,0,8.028,0v-4.014a1.334,1.334,0,0,1,.613-1.123c.011-.007.025-.012.036-.019a1.337,1.337,0,0,1,.213-.106c.019-.007.038-.011.057-.017a1.421,1.421,0,0,1,.2-.052c.032,0,.067-.007.1-.009a1.335,1.335,0,0,1,.17-.006,1.722,1.722,0,0,1,.275.04c.017,0,.032.01.048.015a1.462,1.462,0,0,1,.966,1.391v1.225a4.014,4.014,0,1,0,8.028,0v-1.338a1.328,1.328,0,0,1,.393-.945,1.359,1.359,0,0,1,.22-.177c.014-.008.029-.015.044-.024a1.374,1.374,0,0,1,.2-.1c.021-.008.043-.013.067-.019a1.25,1.25,0,0,1,.2-.05c.032-.005.067-.007.1-.01a1.459,1.459,0,0,1,.169-.006,1.722,1.722,0,0,1,.275.04c.017,0,.032.01.048.015a1.462,1.462,0,0,1,.96,1.391v2.563a4.018,4.018,0,0,0,1.176,2.844,4.084,4.084,0,0,0,.423.36c.043.031.088.059.134.09.112.077.226.148.344.213.047.025.094.05.141.073a4.093,4.093,0,0,0,.414.178c.028.01.056.023.084.032a4.067,4.067,0,0,0,1.137.214h0a3.991,3.991,0,0,0,.559-.017l.067-.008c.067-.007.134-.01.2-.021v6.745Zm0,0" transform="translate(0 -117.103)" fill="#ff6630"/>
    <path id="Trazado_20" data-name="Trazado 20" d="M203.743,9.348A3.349,3.349,0,0,0,207.088,6c0-1.606-2.327-5.057-2.794-5.732a.695.695,0,0,0-1.1,0C202.725.946,200.4,4.4,200.4,6a3.349,3.349,0,0,0,3.345,3.345Zm0-7.487c.963,1.5,2.007,3.412,2.007,4.142a2.007,2.007,0,1,1-4.014,0C201.736,5.272,202.78,3.365,203.743,1.86Zm0,0" transform="translate(-183.281)" fill="#ff6630"/>
    <path id="Trazado_21" data-name="Trazado 21" d="M339.743,25.348A3.349,3.349,0,0,0,343.088,22c0-1.606-2.327-5.057-2.794-5.732a.695.695,0,0,0-1.1,0c-.467.675-2.794,4.126-2.794,5.732A3.349,3.349,0,0,0,339.743,25.348Zm0-7.487c.963,1.5,2.007,3.412,2.007,4.142a2.007,2.007,0,0,1-4.014,0C337.736,21.272,338.78,19.365,339.743,17.86Zm0,0" transform="translate(-307.909 -14.662)" fill="#ff6630"/>
    <path id="Trazado_22" data-name="Trazado 22" d="M67.743,25.348A3.349,3.349,0,0,0,71.088,22c0-1.606-2.327-5.057-2.794-5.732a.695.695,0,0,0-1.1,0C66.725,16.946,64.4,20.4,64.4,22a3.349,3.349,0,0,0,3.345,3.345Zm0-7.487c.963,1.5,2.007,3.412,2.007,4.142a2.007,2.007,0,0,1-4.014,0C65.736,21.272,66.78,19.365,67.743,17.86Zm0,0" transform="translate(-58.654 -14.662)" fill="#ff6630"/>
  </g>
</svg>
