<svg xmlns="http://www.w3.org/2000/svg" width="41.991" height="32.61" viewBox="0 0 41.991 32.61">
  <g id="couple" transform="translate(-0.001 -48.187)">
    <g id="Grupo_42" data-name="Grupo 42" transform="translate(0.001 48.187)">
      <path id="Trazado_23" data-name="Trazado 23" d="M39.565,50.6a7.653,7.653,0,0,0-6.132-2.4c-2.926.3-5.2,2.448-6.272,3.663-1.071-1.215-3.346-3.353-6.28-3.663a7.653,7.653,0,0,0-6.132,2.4,7.377,7.377,0,0,0-2.357,4.661A8.085,8.085,0,0,0,7.875,53.74a7.9,7.9,0,0,0-5.448,2.448A7.749,7.749,0,0,0,.119,63.179c.9,6.446,8.242,14.41,14.349,17.528a.812.812,0,0,0,.742,0,31.9,31.9,0,0,0,8.868-7.243,23.72,23.72,0,0,0,2.712,1.677.812.812,0,0,0,.742,0c6.066-3.11,13.451-11.1,14.341-17.545A7.749,7.749,0,0,0,39.565,50.6ZM14.839,79.022C9.21,75.962,2.559,68.753,1.751,62.944a6.047,6.047,0,0,1,1.8-5.524,6.332,6.332,0,0,1,4.327-1.987c3.536,0,6.264,3.789,6.289,3.831a.809.809,0,0,0,1.335,0s2.745-3.831,6.322-3.831a6.332,6.332,0,0,1,4.327,1.987,6.047,6.047,0,0,1,1.8,5.524C27.12,68.753,20.469,75.962,14.839,79.022Zm25.4-21.661c-.824,5.8-7.418,13.018-13.088,16.069a22.911,22.911,0,0,1-2.036-1.257c2.3-2.926,4.006-6.111,4.409-8.995a7.749,7.749,0,0,0-2.308-6.991,7.9,7.9,0,0,0-5.4-2.431c-3.256,0-5.769,2.389-6.956,3.7a8.692,8.692,0,0,0-.824-.838A5.92,5.92,0,0,1,15.9,51.862,6.128,6.128,0,0,1,20.741,49.9c3.3.335,5.769,3.772,5.769,3.806a.809.809,0,0,0,1.335,0s2.473-3.462,5.769-3.8a6.12,6.12,0,0,1,4.846,1.962A6.047,6.047,0,0,1,40.241,57.361Z" transform="translate(-0.001 -48.187)" fill="#ff6630"/>
    </g>
  </g>
</svg>
