<?xml version="1.0" encoding="UTF-8" standalone="no"?>
<svg
   xmlns:dc="http://purl.org/dc/elements/1.1/"
   xmlns:cc="http://creativecommons.org/ns#"
   xmlns:rdf="http://www.w3.org/1999/02/22-rdf-syntax-ns#"
   xmlns:svg="http://www.w3.org/2000/svg"
   xmlns="http://www.w3.org/2000/svg"
   id="svg30"
   version="1.1"
   viewBox="0 0 117.957 118.221"
   height="118.221"
   width="117.957">
  <metadata
     id="metadata34">
    <rdf:RDF>
      <cc:Work
         rdf:about="">
        <dc:format>image/svg+xml</dc:format>
        <dc:type
           rdf:resource="http://purl.org/dc/dcmitype/StillImage" />
      </cc:Work>
    </rdf:RDF>
  </metadata>
  <defs
     id="defs18">
    <linearGradient
       gradientUnits="objectBoundingBox"
       y2="1"
       x2="0.5"
       x1="0.5"
       id="a">
      <stop
         id="stop2"
         stop-color="#f8e300"
         offset="0" />
      <stop
         id="stop4"
         stop-color="#ff2b00"
         offset="1" />
    </linearGradient>
    <filter
       filterUnits="userSpaceOnUse"
       height="118.221"
       width="117.957"
       y="0"
       x="0"
       id="b">
      <feOffset
         id="feOffset7"
         input="SourceAlpha"
         dy="3"
         dx="1" />
      <feGaussianBlur
         id="feGaussianBlur9"
         result="c"
         stdDeviation="3" />
      <feFlood
         id="feFlood11"
         flood-opacity="0.239" />
      <feComposite
         result="result1"
         id="feComposite13"
         in2="c"
         operator="in" />
      <feComposite
         id="feComposite15"
         in2="result1"
         in="SourceGraphic" />
    </filter>
  </defs>
  <g
     id="g28"
     transform="translate(-129.247 -194.409)">
    <g
       id="g22"
       filter="url(#b)"
       transform="matrix(1, 0, 0, 1, 129.25, 194.41)">
      <rect
         id="rect20"
         fill="url(#a)"
         transform="translate(60.53 6) rotate(49)"
         rx="24"
         height="69.608"
         width="72.285" />
    </g>
    <g
       id="g26"
       transform="translate(167.105 230.278)">
      <path
         id="path24"
         fill="#fff"
         transform="translate(0 0.002)"
         d="M40.78,20.076a7.874,7.874,0,0,0-3.762-2.926,7.93,7.93,0,0,0,2.356-4.14.653.653,0,0,0-.284-.686A7.93,7.93,0,0,0,34.5,11.061a7.875,7.875,0,0,0,.591-4.729.653.653,0,0,0-.525-.525,7.874,7.874,0,0,0-4.729.591A7.929,7.929,0,0,0,28.572,1.8a.653.653,0,0,0-.686-.284,7.93,7.93,0,0,0-4.14,2.356A7.874,7.874,0,0,0,20.819.114a.653.653,0,0,0-.742,0A7.875,7.875,0,0,0,17.15,3.876,7.929,7.929,0,0,0,13.01,1.52a.653.653,0,0,0-.686.284A7.93,7.93,0,0,0,11.062,6.4a7.875,7.875,0,0,0-4.729-.591.653.653,0,0,0-.525.525A7.874,7.874,0,0,0,6.4,11.061a7.929,7.929,0,0,0-4.594,1.262.653.653,0,0,0-.284.686,7.929,7.929,0,0,0,2.356,4.14A7.874,7.874,0,0,0,.115,20.076a.653.653,0,0,0,0,.742,7.874,7.874,0,0,0,3.762,2.926,7.929,7.929,0,0,0-2.356,4.14.653.653,0,0,0,.284.686,7.931,7.931,0,0,0,4.3,1.268c.1,0,.2,0,.293-.007a7.874,7.874,0,0,0-.591,4.73.653.653,0,0,0,.525.525,8.048,8.048,0,0,0,1.445.131,7.829,7.829,0,0,0,3.284-.721,7.93,7.93,0,0,0,1.262,4.593.652.652,0,0,0,.686.284,7.93,7.93,0,0,0,4.14-2.356,7.874,7.874,0,0,0,2.926,3.762.653.653,0,0,0,.742,0,7.875,7.875,0,0,0,2.926-3.762,7.929,7.929,0,0,0,4.14,2.356.652.652,0,0,0,.686-.284A7.929,7.929,0,0,0,29.833,34.5a7.829,7.829,0,0,0,3.284.721,8.054,8.054,0,0,0,1.445-.131.653.653,0,0,0,.525-.525,7.874,7.874,0,0,0-.591-4.73c.1,0,.2.007.293.007a7.931,7.931,0,0,0,4.3-1.268.653.653,0,0,0,.284-.686,7.929,7.929,0,0,0-2.356-4.14,7.874,7.874,0,0,0,3.762-2.926A.653.653,0,0,0,40.78,20.076Zm-2.795-6.893A6.615,6.615,0,0,1,31.1,17.939a10.881,10.881,0,0,0-1.35-3.249,6.615,6.615,0,0,1,8.233-1.507Zm-17.538,16.9a9.641,9.641,0,1,1,9.641-9.641A9.651,9.651,0,0,1,20.448,30.088ZM33.87,7.024a6.669,6.669,0,0,1-.977,4.262A7.914,7.914,0,0,0,28.978,13.6,11.043,11.043,0,0,0,27.3,11.916,7.917,7.917,0,0,0,29.609,8,6.67,6.67,0,0,1,33.87,7.024ZM27.712,2.909a6.615,6.615,0,0,1-1.507,8.233,10.883,10.883,0,0,0-3.249-1.35,6.615,6.615,0,0,1,4.756-6.882ZM20.448,1.465a6.668,6.668,0,0,1,2.322,3.7,7.914,7.914,0,0,0-1.134,4.4,10.936,10.936,0,0,0-2.376,0,7.915,7.915,0,0,0-1.134-4.4A6.67,6.67,0,0,1,20.448,1.465ZM13.184,2.909A6.615,6.615,0,0,1,17.94,9.791a10.883,10.883,0,0,0-3.249,1.35,6.615,6.615,0,0,1-1.507-8.233ZM7.025,7.024A6.667,6.667,0,0,1,11.287,8,7.917,7.917,0,0,0,13.6,11.916,11.039,11.039,0,0,0,11.917,13.6,7.914,7.914,0,0,0,8,11.286,6.669,6.669,0,0,1,7.025,7.024ZM2.91,13.183a6.615,6.615,0,0,1,8.233,1.507,10.883,10.883,0,0,0-1.35,3.249A6.615,6.615,0,0,1,2.91,13.183ZM1.465,20.448a6.67,6.67,0,0,1,3.7-2.323,7.922,7.922,0,0,0,4.093,1.141q.152,0,.3-.006a10.938,10.938,0,0,0,0,2.376,7.914,7.914,0,0,0-4.4,1.134A6.556,6.556,0,0,1,1.465,20.448ZM2.91,27.711a6.615,6.615,0,0,1,6.882-4.756,10.881,10.881,0,0,0,1.35,3.249A6.615,6.615,0,0,1,2.91,27.711Zm4.115,6.158A6.669,6.669,0,0,1,8,29.608a7.911,7.911,0,0,0,3.915-2.31A11.043,11.043,0,0,0,13.6,28.978a7.917,7.917,0,0,0-2.311,3.915A6.669,6.669,0,0,1,7.025,33.869Zm6.158,4.115a6.615,6.615,0,0,1,1.507-8.233A10.883,10.883,0,0,0,17.94,31.1a6.615,6.615,0,0,1-4.756,6.882Zm7.264,1.445a6.668,6.668,0,0,1-2.322-3.7,7.914,7.914,0,0,0,1.134-4.4,10.936,10.936,0,0,0,2.376,0,7.915,7.915,0,0,0,1.134,4.4A6.67,6.67,0,0,1,20.448,39.429Zm7.264-1.445A6.615,6.615,0,0,1,22.956,31.1a10.883,10.883,0,0,0,3.249-1.35,6.615,6.615,0,0,1,1.507,8.233Zm6.158-4.115a6.667,6.667,0,0,1-4.262-.977A7.917,7.917,0,0,0,27.3,28.977,11.043,11.043,0,0,0,28.979,27.3a7.911,7.911,0,0,0,3.915,2.311A6.67,6.67,0,0,1,33.87,33.869Zm4.115-6.158A6.615,6.615,0,0,1,29.753,26.2a10.883,10.883,0,0,0,1.35-3.249,6.615,6.615,0,0,1,6.882,4.756Zm-2.26-4.942a7.915,7.915,0,0,0-4.4-1.134,10.938,10.938,0,0,0,0-2.376q.152.006.3.006a7.921,7.921,0,0,0,4.093-1.141,6.557,6.557,0,0,1,3.7,2.322A6.669,6.669,0,0,1,35.726,22.769Z" />
    </g>
  </g>
</svg>
