<svg xmlns="http://www.w3.org/2000/svg" width="61.273" height="70.697" viewBox="0 0 61.273 70.697">
  <path id="ramo-de-flores_1_" data-name="ramo-de-flores (1)" d="M48.35,34.019a1.178,1.178,0,0,0-.337,1.011,53.935,53.935,0,0,0,2.774,10.084c3.291,8.739,7.661,13.808,10.96,16.612A16.654,16.654,0,0,0,63.473,75.5a1.178,1.178,0,0,0,1.5.492l1.579-.7A24.045,24.045,0,0,0,64.5,85.524,1.178,1.178,0,0,0,65.674,86.7H91.6a1.178,1.178,0,0,0,1.178-1.178,24.034,24.034,0,0,0-2.057-10.23L92.3,76a1.178,1.178,0,0,0,1.5-.492,16.652,16.652,0,0,0,1.726-13.778c5.692-4.827,9.092-11.65,10.96-16.611A53.939,53.939,0,0,0,109.26,35.03a1.178,1.178,0,0,0-1.352-1.336q-.827.133-1.654.256c.442-4.285-1.276-8.891-1.7-9.946a8.245,8.245,0,0,0-16.484,0c-.121.3-.346.886-.6,1.668-.25-.782-.475-1.368-.6-1.668a8.245,8.245,0,0,0-16.484,0c-.121.3-.346.886-.6,1.668-.25-.782-.475-1.368-.6-1.668A8.245,8.245,0,0,0,52.72,24c-.424,1.055-2.143,5.66-1.7,9.946q-.828-.125-1.654-.256A1.178,1.178,0,0,0,48.35,34.019ZM65.016,73.4a14.113,14.113,0,0,1,0-13.455L73.922,63.9v1.332l-4.482-.9a1.178,1.178,0,1,0-.462,2.311l4.944.989v1.8Zm1.86,10.947A19.168,19.168,0,0,1,70.23,73.66l5.121-2.276H81.92l5.12,2.276a19.165,19.165,0,0,1,3.354,10.686Zm9.4-15.318V64.315h4.713v4.713ZM92.255,73.4,83.349,69.44v-1.8l4.944-.989a1.178,1.178,0,0,0-.462-2.311l-4.482.9V63.9l8.907-3.959A14.113,14.113,0,0,1,92.255,73.4ZM103.83,34.3q-2.371.326-4.747.59a14.406,14.406,0,0,0-.9-2.605,8.275,8.275,0,0,0,5.265-3.906A15.689,15.689,0,0,1,103.83,34.3ZM90.537,23.074a5.9,5.9,0,0,0,5.773,4.713,3.535,3.535,0,1,0,0-7.07,1.178,1.178,0,1,0,0,2.357,1.178,1.178,0,0,1,0,2.357,3.535,3.535,0,0,1,0-7.07,5.889,5.889,0,1,1-5.773,4.713Zm-1.509,5.964q.068-.338.144-.661a8.257,8.257,0,0,0,6.427,4.09,9.04,9.04,0,0,1,1.114,2.669q-3.77.37-7.547.585A12.91,12.91,0,0,1,89.029,29.038Zm17.595,7.24c-.9,4.23-4.014,15.9-12.015,23.12q-.366-.781-.81-1.559a1.178,1.178,0,0,0-1.5-.492L81.92,61.958H79.783A44.884,44.884,0,0,0,76.1,46.151a40.569,40.569,0,0,0-4.589-7.907,187.361,187.361,0,0,0,35.109-1.967Zm-20.7-7.22a12.632,12.632,0,0,1-.2,6.829q-2.018.077-4.037.11a16.319,16.319,0,0,0-1.112-3.728,8.276,8.276,0,0,0,5.2-3.891Q85.851,28.709,85.921,29.058ZM72.863,23.074a5.9,5.9,0,0,0,5.773,4.713,3.535,3.535,0,0,0,0-7.07,1.178,1.178,0,0,0,0,2.357,1.178,1.178,0,0,1,0,2.357,3.535,3.535,0,0,1,0-7.07,5.889,5.889,0,1,1-5.773,4.713Zm-1.509,5.964q.068-.338.144-.661a8.255,8.255,0,0,0,6.525,4.1,11.088,11.088,0,0,1,1.262,3.546q-3.866.014-7.73-.134A12.652,12.652,0,0,1,71.354,29.038ZM68.234,29a12.951,12.951,0,0,1-.129,6.726q-2.122-.121-4.242-.29a15.127,15.127,0,0,0-1.028-3.149A8.274,8.274,0,0,0,68.1,28.378q.07.3.135.617ZM55.188,23.074a5.9,5.9,0,0,0,5.773,4.713,3.535,3.535,0,1,0,0-7.07,1.178,1.178,0,0,0,0,2.357,1.178,1.178,0,1,1,0,2.357,3.535,3.535,0,0,1,0-7.07,5.889,5.889,0,1,1-5.773,4.713Zm-1.364,5.305a8.257,8.257,0,0,0,6.423,4.088,9.075,9.075,0,0,1,1.138,2.747q-3.977-.373-7.944-.917A15.717,15.717,0,0,1,53.824,28.379ZM68.4,38.1a40.517,40.517,0,0,1,9.022,23.859H75.351L64.975,57.346a1.178,1.178,0,0,0-1.5.492q-.445.779-.81,1.559c-8-7.218-11.114-18.89-12.015-23.12Q59.5,37.613,68.4,38.1Z" transform="translate(-48 -16.005)" fill="#ffcb00"/>
</svg>
