<svg xmlns="http://www.w3.org/2000/svg" width="32.833" height="40.233" viewBox="0 0 32.833 40.233">
  <g id="anillo-de-bodas" transform="translate(-76.04 -70.967)">
    <g id="Grupo_44" data-name="Grupo 44" transform="translate(76.04 70.967)">
      <g id="Grupo_43" data-name="Grupo 43" transform="translate(0 0)">
        <path id="Trazado_24" data-name="Trazado 24" d="M94.254,78.465l4.193-3.494h0l0,0c.014-.011.026-.023.038-.035l.008-.007q.023-.023.044-.049l0-.006c.012-.015.023-.03.034-.045l.012-.019.022-.036.013-.026.015-.031.012-.03c0-.01.008-.02.011-.03s.007-.021.01-.032.006-.021.008-.031,0-.021.006-.031,0-.024.005-.036,0-.019,0-.028,0-.031,0-.046,0-.01,0-.016,0,0,0,0c0-.022,0-.045,0-.067,0,0,0-.005,0-.008,0-.019,0-.038-.009-.057s0-.018-.006-.026-.006-.024-.009-.036-.007-.021-.01-.031-.007-.02-.011-.03l-.014-.032-.013-.027-.017-.032-.008-.014-1.7-2.775a.694.694,0,0,0-.591-.331H88.61a.694.694,0,0,0-.591.331l-1.7,2.774-.008.014-.017.032-.013.027-.014.032c0,.01-.007.02-.011.03s-.007.02-.01.031-.006.024-.009.036,0,.018-.006.026-.007.038-.009.057v.008c0,.022,0,.045,0,.067,0,0,0,0,0,0s0,.01,0,.016,0,.031,0,.046,0,.019,0,.028,0,.024.005.036,0,.021.006.031.005.021.008.031.006.021.01.032l.011.03.012.03.015.031.013.026c.007.012.014.024.022.036l.012.019c.01.015.022.03.034.045l0,.006c.014.017.029.033.044.049l.008.007c.012.012.025.024.038.035l0,0h0l4.193,3.494a16.417,16.417,0,1,0,3.594,0Zm-1.1-.886v-2.45h2.94Zm2.368-5.224h.4l.851,1.387H94.131Zm-1.962,0-1.1,1.1-1.1-1.1Zm-4.558,0h.4l1.387,1.387H88.147Zm-.175,2.774h2.94v2.45Zm3.633,34.683a15.029,15.029,0,1,1,15.029-15.029A15.046,15.046,0,0,1,92.457,109.812Z" transform="translate(-76.04 -70.967)" fill="#ff6630"/>
      </g>
    </g>
    <g id="Grupo_46" data-name="Grupo 46" transform="translate(78.815 81.141)">
      <g id="Grupo_45" data-name="Grupo 45">
        <path id="Trazado_25" data-name="Trazado 25" d="M132.667,190.828a13.67,13.67,0,0,0-1.258-2.318,13.685,13.685,0,0,0-6-4.943,13.69,13.69,0,0,0-10.62,0,13.68,13.68,0,0,0-7.26,7.26,13.665,13.665,0,0,0,1.151,12.775A13.617,13.617,0,0,0,120.1,209.78h0a13.628,13.628,0,0,0,10.308-4.708.694.694,0,1,0-1.047-.91h0a12.437,12.437,0,0,1-1.876,1.755,12.271,12.271,0,0,1-12.462,1.378l-.017-.007h0a12.263,12.263,0,1,1,15.852-5.277.694.694,0,0,0,1.217.666,13.548,13.548,0,0,0,1.232-3.109,13.694,13.694,0,0,0,.435-3.429A13.552,13.552,0,0,0,132.667,190.828Z" transform="translate(-106.455 -182.496)" fill="#ff6630"/>
      </g>
    </g>
  </g>
</svg>
