<svg xmlns="http://www.w3.org/2000/svg" width="15" height="15" viewBox="0 0 24.391 25.5">
  <g id="bag" transform="translate(45.443 -753.616)">
    <g id="Grupo_24" data-name="Grupo 24" transform="translate(-45.443 753.616)">
      <path id="Trazado_18" data-name="Trazado 18" d="M92.932,22.024,91.16,7.1a.976.976,0,0,0-1.039-.725H87V4.781A4.273,4.273,0,0,0,85.174,1.4,7.29,7.29,0,0,0,80.752,0c-3.444,0-6.246,2.145-6.246,4.781V6.375H71.383a.972.972,0,0,0-1.037.725L68.574,22.024a2.766,2.766,0,0,0,1.072,2.438A4.835,4.835,0,0,0,72.721,25.5H88.784a4.835,4.835,0,0,0,3.075-1.038A2.771,2.771,0,0,0,92.932,22.024ZM76.588,4.781c0-1.758,1.868-3.187,4.164-3.187a4.869,4.869,0,0,1,2.95.929,2.844,2.844,0,0,1,1.214,2.258V6.375H76.588ZM90.321,23.388a2.4,2.4,0,0,1-1.539.518H72.721a2.382,2.382,0,0,1-1.537-.52,1.361,1.361,0,0,1-.535-1.219l1.684-14.2h2.172v2.391a1.078,1.078,0,0,0,2.082,0V7.969h8.328v2.391a1.078,1.078,0,0,0,2.082,0V7.969h2.172l1.686,14.2A1.363,1.363,0,0,1,90.321,23.388Z" transform="translate(-68.557 0)" fill="#fff"/>
    </g>
  </g>
</svg>
