<svg xmlns="http://www.w3.org/2000/svg" width="28" height="26" viewBox="0 0 28 26">
  <g id="Grupo_41" data-name="Grupo 41" transform="translate(-110 -19)">
    <g id="Grupo_40" data-name="Grupo 40">
      <g id="Rectángulo_3" data-name="Rectángulo 3" transform="translate(110 19)" fill="none" stroke="#d0d0d0" stroke-width="1.8">
        <path d="M0,0H11a3,3,0,0,1,3,3V13a0,0,0,0,1,0,0H3a3,3,0,0,1-3-3V0A0,0,0,0,1,0,0Z" stroke="none"/>
        <path d="M1.8.9H11A2.1,2.1,0,0,1,13.1,3v8.2a.9.9,0,0,1-.9.9H3A2.1,2.1,0,0,1,.9,10V1.8A.9.9,0,0,1,1.8.9Z" fill="none"/>
      </g>
      <g id="Rectángulo_5" data-name="Rectángulo 5" transform="translate(125 19)" fill="none" stroke="#d0d0d0" stroke-width="1.8">
        <path d="M3,0H13a0,0,0,0,1,0,0V10a3,3,0,0,1-3,3H0a0,0,0,0,1,0,0V3A3,3,0,0,1,3,0Z" stroke="none"/>
        <path d="M3,.9h8.2a.9.9,0,0,1,.9.9V10A2.1,2.1,0,0,1,10,12.1H1.8a.9.9,0,0,1-.9-.9V3A2.1,2.1,0,0,1,3,.9Z" fill="none"/>
      </g>
      <g id="Rectángulo_4" data-name="Rectángulo 4" transform="translate(110 33)" fill="none" stroke="#d0d0d0" stroke-width="1.8">
        <path d="M3,0H14a0,0,0,0,1,0,0V9a3,3,0,0,1-3,3H0a0,0,0,0,1,0,0V3A3,3,0,0,1,3,0Z" stroke="none"/>
        <path d="M3,.9h9.2a.9.9,0,0,1,.9.9V9A2.1,2.1,0,0,1,11,11.1H1.8a.9.9,0,0,1-.9-.9V3A2.1,2.1,0,0,1,3,.9Z" fill="none"/>
      </g>
      <g id="Rectángulo_6" data-name="Rectángulo 6" transform="translate(125 33)" fill="none" stroke="#d0d0d0" stroke-width="1.8">
        <path d="M0,0H10a3,3,0,0,1,3,3v9a0,0,0,0,1,0,0H3A3,3,0,0,1,0,9V0A0,0,0,0,1,0,0Z" stroke="none"/>
        <path d="M1.8.9H10A2.1,2.1,0,0,1,12.1,3v7.2a.9.9,0,0,1-.9.9H3A2.1,2.1,0,0,1,.9,9V1.8A.9.9,0,0,1,1.8.9Z" fill="none"/>
      </g>
    </g>
  </g>
</svg>
