<?xml version="1.0" encoding="UTF-8" standalone="no"?>
<svg
   xmlns:dc="http://purl.org/dc/elements/1.1/"
   xmlns:cc="http://creativecommons.org/ns#"
   xmlns:rdf="http://www.w3.org/1999/02/22-rdf-syntax-ns#"
   xmlns:svg="http://www.w3.org/2000/svg"
   xmlns="http://www.w3.org/2000/svg"
   version="1.1"
   viewBox="0 0 35 35"
   height="35"
   width="35"
   id="google">
  <metadata
     id="metadata13">
    <rdf:RDF>
      <cc:Work
         rdf:about="">
        <dc:format>image/svg+xml</dc:format>
        <dc:type
           rdf:resource="http://purl.org/dc/dcmitype/StillImage" />
      </cc:Work>
    </rdf:RDF>
  </metadata>
  <defs
     id="defs11" />
  <path
     fill="#167ee6"
     transform="translate(-248.87 -197.022)"
     d="M282.549,211.48H268.272a1.141,1.141,0,0,0-1.141,1.141v4.561a1.141,1.141,0,0,0,1.141,1.141h8.039a10.733,10.733,0,0,1-4.62,5.414l3.428,5.934a17.16,17.16,0,0,0,8.75-15.007,11.571,11.571,0,0,0-.2-2.241A1.147,1.147,0,0,0,282.549,211.48Z"
     data-name="Trazado 8"
     id="Trazado_8" />
  <path
     fill="#12b347"
     transform="translate(-32.059 -311.025)"
     d="M49.559,339.178a10.65,10.65,0,0,1-9.214-5.331l-5.934,3.42a17.486,17.486,0,0,0,23.9,6.414v-.008l-3.428-5.934A10.572,10.572,0,0,1,49.559,339.178Z"
     data-name="Trazado 9"
     id="Trazado_9" />
  <path
     fill="#0f993e"
     transform="translate(-238.5 -364.066)"
     d="M264.75,396.721v-.008l-3.428-5.934A10.573,10.573,0,0,1,256,392.218v6.848A17.47,17.47,0,0,0,264.75,396.721Z"
     data-name="Trazado 10"
     id="Trazado_10" />
  <path
     fill="#ffd500"
     transform="translate(0 -119.361)"
     d="M6.848,136.861a10.573,10.573,0,0,1,1.438-5.322l-5.934-3.42a17.42,17.42,0,0,0,0,17.484l5.934-3.42A10.573,10.573,0,0,1,6.848,136.861Z"
     data-name="Trazado 11"
     id="Trazado_11" />
  <path
     fill="#ff4b26"
     transform="translate(-32.059)"
     d="M49.559,6.848a10.6,10.6,0,0,1,6.763,2.428,1.137,1.137,0,0,0,1.53-.069l3.231-3.231a1.15,1.15,0,0,0-.066-1.682A17.462,17.462,0,0,0,34.411,8.758l5.934,3.42A10.65,10.65,0,0,1,49.559,6.848Z"
     data-name="Trazado 12"
     id="Trazado_12" />
  <path
     fill="#d93f21"
     transform="translate(-238.5)"
     d="M262.763,9.276a1.137,1.137,0,0,0,1.53-.069l3.231-3.231a1.15,1.15,0,0,0-.066-1.682A17.447,17.447,0,0,0,256,0V6.848A10.6,10.6,0,0,1,262.763,9.276Z"
     data-name="Trazado 13"
     id="Trazado_13" />
</svg>
