<svg xmlns="http://www.w3.org/2000/svg" width="28.52" height="27.732" viewBox="0 0 28.52 27.732">
  <path id="Icon_ionic-ios-heart" data-name="Icon ionic-ios-heart" d="M22.755,3.938h-.064a7.254,7.254,0,0,0-6.056,3.315,7.254,7.254,0,0,0-6.056-3.315h-.064a7.208,7.208,0,0,0-7.14,7.2A15.518,15.518,0,0,0,6.422,19.6a53.4,53.4,0,0,0,10.213,9.837A53.4,53.4,0,0,0,26.848,19.6a15.518,15.518,0,0,0,3.047-8.46A7.208,7.208,0,0,0,22.755,3.938Z" transform="translate(-2.375 -2.938)" fill="none" stroke="#c1c1c1" stroke-width="2"/>
</svg>
