<svg xmlns="http://www.w3.org/2000/svg" width="27.845" height="27.854" viewBox="0 0 27.845 27.854">
  <path id="Icon_ionic-ios-settings" data-name="Icon ionic-ios-settings" d="M27.889,17.247a3.281,3.281,0,0,1,2.1-3.061A13,13,0,0,0,28.42,10.4a3.324,3.324,0,0,1-1.334.285,3.273,3.273,0,0,1-2.994-4.607A12.964,12.964,0,0,0,20.307,4.5a3.278,3.278,0,0,1-6.121,0A13,13,0,0,0,10.4,6.073,3.273,3.273,0,0,1,7.4,10.681,3.216,3.216,0,0,1,6.067,10.4a13.291,13.291,0,0,0-1.567,3.8,3.28,3.28,0,0,1,.007,6.121A13,13,0,0,0,6.08,24.1,3.275,3.275,0,0,1,10.4,28.427,13.079,13.079,0,0,0,14.193,30,3.272,3.272,0,0,1,20.3,30a13,13,0,0,0,3.791-1.573A3.278,3.278,0,0,1,28.413,24.1a13.079,13.079,0,0,0,1.573-3.791A3.3,3.3,0,0,1,27.889,17.247Zm-10.582,5.3a5.311,5.311,0,1,1,5.311-5.311A5.31,5.31,0,0,1,17.306,22.551Z" transform="translate(-3.324 -3.323)" fill="none" stroke="#c1c1c1" stroke-width="2"/>
</svg>
